<mxfile host="app.diagrams.net" modified="2023-12-18T04:45:12.234Z" agent="Mozilla/5.0 (Windows NT 10.0; Win64; x64) AppleWebKit/537.36 (KHTML, like Gecko) Chrome/120.0.0.0 Safari/537.36" etag="sQHGFGRWsKcXViPWzGTQ" version="22.1.11" type="device">
  <diagram name="Page-1" id="CTwLWxqc1L-N2uM1jExQ">
    <mxGraphModel dx="1050" dy="530" grid="1" gridSize="10" guides="1" tooltips="1" connect="1" arrows="1" fold="1" page="1" pageScale="1" pageWidth="850" pageHeight="1100" math="0" shadow="0">
      <root>
        <mxCell id="0" />
        <mxCell id="1" parent="0" />
        <mxCell id="G1paxGwMHXN2TVMlT6y_-1" value="Game" style="html=1;whiteSpace=wrap;" vertex="1" parent="1">
          <mxGeometry x="65" y="180" width="110" height="50" as="geometry" />
        </mxCell>
        <mxCell id="G1paxGwMHXN2TVMlT6y_-8" value="Engine" style="verticalAlign=top;align=left;spacingTop=8;spacingLeft=2;spacingRight=12;shape=cube;size=10;direction=south;fontStyle=4;html=1;whiteSpace=wrap;" vertex="1" parent="1">
          <mxGeometry x="60" y="270" width="580" height="270" as="geometry" />
        </mxCell>
        <mxCell id="G1paxGwMHXN2TVMlT6y_-17" style="edgeStyle=orthogonalEdgeStyle;rounded=0;orthogonalLoop=1;jettySize=auto;html=1;endArrow=open;endFill=0;" edge="1" parent="1" source="G1paxGwMHXN2TVMlT6y_-5" target="G1paxGwMHXN2TVMlT6y_-12">
          <mxGeometry relative="1" as="geometry" />
        </mxCell>
        <mxCell id="G1paxGwMHXN2TVMlT6y_-36" value="Inline" style="edgeLabel;html=1;align=center;verticalAlign=middle;resizable=0;points=[];" vertex="1" connectable="0" parent="G1paxGwMHXN2TVMlT6y_-17">
          <mxGeometry x="-0.1771" y="-4" relative="1" as="geometry">
            <mxPoint as="offset" />
          </mxGeometry>
        </mxCell>
        <mxCell id="G1paxGwMHXN2TVMlT6y_-5" value="«Component»&lt;br&gt;&lt;b&gt;ECS&lt;/b&gt;" style="html=1;dropTarget=0;whiteSpace=wrap;" vertex="1" parent="1">
          <mxGeometry x="190" y="400" width="180" height="90" as="geometry" />
        </mxCell>
        <mxCell id="G1paxGwMHXN2TVMlT6y_-6" value="" style="shape=module;jettyWidth=8;jettyHeight=4;" vertex="1" parent="G1paxGwMHXN2TVMlT6y_-5">
          <mxGeometry x="1" width="20" height="20" relative="1" as="geometry">
            <mxPoint x="-27" y="7" as="offset" />
          </mxGeometry>
        </mxCell>
        <mxCell id="G1paxGwMHXN2TVMlT6y_-23" style="edgeStyle=orthogonalEdgeStyle;rounded=0;orthogonalLoop=1;jettySize=auto;html=1;entryX=0;entryY=0.5;entryDx=0;entryDy=0;endArrow=open;endFill=0;" edge="1" parent="1" source="G1paxGwMHXN2TVMlT6y_-2" target="G1paxGwMHXN2TVMlT6y_-5">
          <mxGeometry relative="1" as="geometry">
            <Array as="points">
              <mxPoint x="130" y="445" />
            </Array>
          </mxGeometry>
        </mxCell>
        <mxCell id="G1paxGwMHXN2TVMlT6y_-37" value="Inline" style="edgeLabel;html=1;align=center;verticalAlign=middle;resizable=0;points=[];" vertex="1" connectable="0" parent="G1paxGwMHXN2TVMlT6y_-23">
          <mxGeometry x="-0.4252" y="2" relative="1" as="geometry">
            <mxPoint as="offset" />
          </mxGeometry>
        </mxCell>
        <mxCell id="G1paxGwMHXN2TVMlT6y_-28" style="edgeStyle=orthogonalEdgeStyle;rounded=0;orthogonalLoop=1;jettySize=auto;html=1;" edge="1" parent="1" source="G1paxGwMHXN2TVMlT6y_-2" target="G1paxGwMHXN2TVMlT6y_-14">
          <mxGeometry relative="1" as="geometry" />
        </mxCell>
        <mxCell id="G1paxGwMHXN2TVMlT6y_-41" value="Static and Dynamic&lt;br&gt;Libraries" style="edgeLabel;html=1;align=center;verticalAlign=middle;resizable=0;points=[];" vertex="1" connectable="0" parent="G1paxGwMHXN2TVMlT6y_-28">
          <mxGeometry x="-0.0646" y="-3" relative="1" as="geometry">
            <mxPoint as="offset" />
          </mxGeometry>
        </mxCell>
        <mxCell id="G1paxGwMHXN2TVMlT6y_-2" value="«interface»&lt;br&gt;&lt;b&gt;Engine Core&lt;/b&gt;" style="html=1;whiteSpace=wrap;" vertex="1" parent="1">
          <mxGeometry x="70" y="320" width="100" height="50" as="geometry" />
        </mxCell>
        <mxCell id="G1paxGwMHXN2TVMlT6y_-24" style="edgeStyle=orthogonalEdgeStyle;rounded=0;orthogonalLoop=1;jettySize=auto;html=1;entryX=0.25;entryY=1;entryDx=0;entryDy=0;startArrow=open;startFill=0;endArrow=none;endFill=0;" edge="1" parent="1" source="G1paxGwMHXN2TVMlT6y_-12" target="G1paxGwMHXN2TVMlT6y_-2">
          <mxGeometry relative="1" as="geometry">
            <Array as="points">
              <mxPoint x="530" y="510" />
              <mxPoint x="95" y="510" />
            </Array>
          </mxGeometry>
        </mxCell>
        <mxCell id="G1paxGwMHXN2TVMlT6y_-35" value="Inline" style="edgeLabel;html=1;align=center;verticalAlign=middle;resizable=0;points=[];" vertex="1" connectable="0" parent="G1paxGwMHXN2TVMlT6y_-24">
          <mxGeometry x="-0.4918" y="1" relative="1" as="geometry">
            <mxPoint as="offset" />
          </mxGeometry>
        </mxCell>
        <mxCell id="G1paxGwMHXN2TVMlT6y_-38" value="Inline" style="edgeLabel;html=1;align=center;verticalAlign=middle;resizable=0;points=[];" vertex="1" connectable="0" parent="G1paxGwMHXN2TVMlT6y_-24">
          <mxGeometry x="0.836" y="-3" relative="1" as="geometry">
            <mxPoint as="offset" />
          </mxGeometry>
        </mxCell>
        <mxCell id="G1paxGwMHXN2TVMlT6y_-12" value="«Component»&lt;br&gt;&lt;b&gt;Math&lt;/b&gt;" style="html=1;dropTarget=0;whiteSpace=wrap;" vertex="1" parent="1">
          <mxGeometry x="440" y="400" width="180" height="90" as="geometry" />
        </mxCell>
        <mxCell id="G1paxGwMHXN2TVMlT6y_-13" value="" style="shape=module;jettyWidth=8;jettyHeight=4;" vertex="1" parent="G1paxGwMHXN2TVMlT6y_-12">
          <mxGeometry x="1" width="20" height="20" relative="1" as="geometry">
            <mxPoint x="-27" y="7" as="offset" />
          </mxGeometry>
        </mxCell>
        <mxCell id="G1paxGwMHXN2TVMlT6y_-14" value="Third Party Dependencies" style="shape=module;align=left;spacingLeft=20;align=center;verticalAlign=top;whiteSpace=wrap;html=1;" vertex="1" parent="1">
          <mxGeometry x="300" y="320" width="100" height="50" as="geometry" />
        </mxCell>
        <mxCell id="G1paxGwMHXN2TVMlT6y_-19" value="Assets" style="shape=folder;fontStyle=1;spacingTop=10;tabWidth=40;tabHeight=14;tabPosition=left;html=1;whiteSpace=wrap;" vertex="1" parent="1">
          <mxGeometry x="410" y="320" width="70" height="50" as="geometry" />
        </mxCell>
        <mxCell id="G1paxGwMHXN2TVMlT6y_-22" style="edgeStyle=orthogonalEdgeStyle;rounded=0;orthogonalLoop=1;jettySize=auto;html=1;entryX=0.5;entryY=0;entryDx=0;entryDy=0;endArrow=block;endFill=1;" edge="1" parent="1" source="G1paxGwMHXN2TVMlT6y_-1" target="G1paxGwMHXN2TVMlT6y_-2">
          <mxGeometry relative="1" as="geometry">
            <mxPoint x="260" y="210" as="targetPoint" />
          </mxGeometry>
        </mxCell>
        <mxCell id="G1paxGwMHXN2TVMlT6y_-34" value="Static Library" style="edgeLabel;html=1;align=center;verticalAlign=middle;resizable=0;points=[];" vertex="1" connectable="0" parent="G1paxGwMHXN2TVMlT6y_-22">
          <mxGeometry x="-0.36" y="1" relative="1" as="geometry">
            <mxPoint as="offset" />
          </mxGeometry>
        </mxCell>
        <mxCell id="G1paxGwMHXN2TVMlT6y_-26" style="edgeStyle=orthogonalEdgeStyle;rounded=0;orthogonalLoop=1;jettySize=auto;html=1;exitX=1;exitY=0.25;exitDx=0;exitDy=0;entryX=0;entryY=0;entryDx=40;entryDy=14;entryPerimeter=0;" edge="1" parent="1" source="G1paxGwMHXN2TVMlT6y_-1" target="G1paxGwMHXN2TVMlT6y_-19">
          <mxGeometry relative="1" as="geometry" />
        </mxCell>
        <mxCell id="G1paxGwMHXN2TVMlT6y_-39" value="Copied non-binaried to output dir" style="edgeLabel;html=1;align=center;verticalAlign=middle;resizable=0;points=[];" vertex="1" connectable="0" parent="G1paxGwMHXN2TVMlT6y_-26">
          <mxGeometry x="-0.1462" y="-1" relative="1" as="geometry">
            <mxPoint as="offset" />
          </mxGeometry>
        </mxCell>
        <mxCell id="G1paxGwMHXN2TVMlT6y_-27" style="edgeStyle=orthogonalEdgeStyle;rounded=0;orthogonalLoop=1;jettySize=auto;html=1;exitX=1;exitY=0.75;exitDx=0;exitDy=0;" edge="1" parent="1" source="G1paxGwMHXN2TVMlT6y_-1" target="G1paxGwMHXN2TVMlT6y_-14">
          <mxGeometry relative="1" as="geometry" />
        </mxCell>
        <mxCell id="G1paxGwMHXN2TVMlT6y_-40" value="Static and Dynamic Libraries" style="edgeLabel;html=1;align=center;verticalAlign=middle;resizable=0;points=[];" vertex="1" connectable="0" parent="G1paxGwMHXN2TVMlT6y_-27">
          <mxGeometry x="-0.0429" y="-2" relative="1" as="geometry">
            <mxPoint as="offset" />
          </mxGeometry>
        </mxCell>
        <mxCell id="G1paxGwMHXN2TVMlT6y_-29" style="edgeStyle=orthogonalEdgeStyle;rounded=0;orthogonalLoop=1;jettySize=auto;html=1;" edge="1" parent="1" source="G1paxGwMHXN2TVMlT6y_-1" target="G1paxGwMHXN2TVMlT6y_-5">
          <mxGeometry relative="1" as="geometry" />
        </mxCell>
        <mxCell id="G1paxGwMHXN2TVMlT6y_-32" value="Inline" style="edgeLabel;html=1;align=center;verticalAlign=middle;resizable=0;points=[];" vertex="1" connectable="0" parent="G1paxGwMHXN2TVMlT6y_-29">
          <mxGeometry x="0.3453" y="4" relative="1" as="geometry">
            <mxPoint as="offset" />
          </mxGeometry>
        </mxCell>
        <mxCell id="G1paxGwMHXN2TVMlT6y_-31" value="Inline" style="edgeStyle=orthogonalEdgeStyle;rounded=0;orthogonalLoop=1;jettySize=auto;html=1;" edge="1" parent="1" source="G1paxGwMHXN2TVMlT6y_-1" target="G1paxGwMHXN2TVMlT6y_-12">
          <mxGeometry relative="1" as="geometry">
            <Array as="points">
              <mxPoint x="120" y="150" />
              <mxPoint x="530" y="150" />
            </Array>
          </mxGeometry>
        </mxCell>
      </root>
    </mxGraphModel>
  </diagram>
</mxfile>
